# xmcd
#
# Track frame offsets:
#	150
#	15012
#	27925
#	39305
#	56855
#	67665
#	80312
#	91877
#	103427
#	119615
#	135075
#	143682
#	158467
#
# Disc length: 2288 seconds
#
# Revision: 0
# Processed by: cddbd v1.4PL0 Copyright (c) Steve Scherf et al.
# Submitted via: EasyCDDAExtractor 4.6.0.1
#
DISCID=9308ee0d
DTITLE=Vann DeLorey - Lucky13 (live covers)
DYEAR=1995
DGENRE=Blues
TTITLE0=Mule Skinner Blues
TTITLE1=Elvis Meets J.J. (medley)
TTITLE2=Memphis
TTITLE3=Back Door Man
TTITLE4=Summertime Blues
TTITLE5=Hide Your Love Away
TTITLE6=Are You Ready For The Country
TTITLE7=Sweet Home Chicago
TTITLE8=All Along The Watchtower
TTITLE9=Folsom Prison Blues
TTITLE10=Chantilly Lace
TTITLE11=The Joker
TTITLE12=Heart of Gold
EXTD=
EXTT0=
EXTT1=
EXTT2=
EXTT3=
EXTT4=
EXTT5=
EXTT6=
EXTT7=
EXTT8=
EXTT9=
EXTT10=
EXTT11=
EXTT12=
PLAYORDER=
